<?xml version="1.0" encoding="utf-8"?>
<!-- Generator: Adobe Illustrator 24.0.1, SVG Export Plug-In . SVG Version: 6.00 Build 0)  -->
<svg version="1.1" id="Layer_1" xmlns="http://www.w3.org/2000/svg" xmlns:xlink="http://www.w3.org/1999/xlink" x="0px" y="0px"
	 viewBox="0 0 512 512" style="enable-background:new 0 0 512 512;" xml:space="preserve">
<style type="text/css">
	.st0{fill:#00AEFF;}
</style>
<g id="script">
	<path class="st0" d="M488,96h-88V40c0-13.3-10.7-24-24-24H136c-13.3,0-24,10.7-24,24v56H24c-4.4,0-8,3.6-8,8v304c0,4.4,3.6,8,8,8
		h208v32h-48c-2.1,0-4.2,0.8-5.7,2.3l-32,32c-3.1,3.1-3.1,8.2,0,11.3c1.5,1.5,3.5,2.3,5.7,2.3h208c4.4,0,8-3.6,8-8
		c0-2.1-0.8-4.2-2.3-5.7l-32-32c-1.5-1.5-3.5-2.3-5.7-2.3h-48v-32h208c4.4,0,8-3.6,8-8V104C496,99.6,492.4,96,488,96z M311.2,272.9
		c-1.1-2.5-3.4-4.4-6.1-4.8l-17.1-2.9v-18.4l17.1-2.8c4.4-0.7,7.3-4.8,6.6-9.2c-0.2-1.2-0.7-2.3-1.4-3.3l-10.1-14.1l13-13l14.1,10.1
		c3.6,2.6,8.6,1.7,11.2-1.9c0.7-1,1.2-2.1,1.4-3.3l2.9-17.1h18.4l2.9,17.1c0.7,4.4,4.8,7.3,9.2,6.6c1.2-0.2,2.3-0.7,3.3-1.4
		l14.1-10.1l13,13l-10.1,14.1c-2.6,3.6-1.7,8.6,1.9,11.2c1,0.7,2.1,1.2,3.3,1.4l17.1,2.8v18.4l-17.1,2.8c-4.4,0.7-7.3,4.8-6.6,9.2
		c0.2,1.2,0.7,2.3,1.4,3.3l10.1,14.1l-13,13l-14.1-10.1c-3.6-2.6-8.6-1.7-11.2,1.9c-0.7,1-1.2,2.1-1.4,3.3l-2.9,17.1h-18.4
		l-2.9-17.1c-0.7-4.4-4.8-7.3-9.2-6.6c-1.2,0.2-2.3,0.7-3.3,1.4l-14.1,10.1l-13-13l10.1-14.1C311.9,278.4,312.3,275.5,311.2,272.9z
		 M400,321.1l19.9-19.9c2.8-2.8,3.1-7.1,0.9-10.3l-6.6-9.2l11.1-1.9c3.9-0.6,6.7-4,6.7-7.9v-32c0-3.9-2.8-7.2-6.7-7.9l-11.1-1.9
		l6.6-9.2c2.3-3.2,1.9-7.5-0.9-10.3L400,190.9V144h48v224h-48V321.1z M128,40c0-4.4,3.6-8,8-8h240c4.4,0,8,3.6,8,8v149.4l-6.2,4.5
		l-1.9-11.2c-0.6-3.9-4-6.7-7.9-6.7h-32c-3.9,0-7.2,2.8-7.9,6.7l-1.9,11.2l-9.2-6.6c-3.2-2.3-7.5-1.9-10.3,0.9l-22.6,22.6
		c-2.8,2.8-3.1,7.1-0.9,10.3l6.6,9.2l-11.1,1.9c-3.9,0.6-6.7,4-6.7,7.9v32c0,3.9,2.8,7.2,6.7,7.9l11.1,1.9l-6.6,9.2
		c-2.3,3.2-1.9,7.5,0.9,10.3l22.6,22.6c2.8,2.8,7.1,3.1,10.3,0.9l9.2-6.6l1.9,11.2c0.6,3.9,4,6.7,7.9,6.7h32c3.9,0,7.2-2.8,7.9-6.7
		l1.9-11.2l6.2,4.5V368H128V40z M64,368V144h48v224H64z M340.7,480H171.3l16-16h137.4L340.7,480z M264,448h-16v-32h16V448z M480,400
		H32V112h80v16H56c-4.4,0-8,3.6-8,8v240c0,4.4,3.6,8,8,8h400c4.4,0,8-3.6,8-8V136c0-4.4-3.6-8-8-8h-56v-16h80V400z"/>
	<path class="st0" d="M352,288c17.7,0,32-14.3,32-32s-14.3-32-32-32s-32,14.3-32,32S334.3,288,352,288z M352,240c8.8,0,16,7.2,16,16
		c0,8.8-7.2,16-16,16s-16-7.2-16-16C336,247.2,343.2,240,352,240z"/>
	<path class="st0" d="M194.3,165.7l11.3-11.3L163.3,112l42.3-42.3l-11.3-11.3l-48,48c-3.1,3.1-3.1,8.2,0,11.3L194.3,165.7z"/>
	<path class="st0" d="M309.7,165.7l48-48c3.1-3.1,3.1-8.2,0-11.3l-48-48l-11.3,11.3l42.3,42.3l-42.3,42.3L309.7,165.7z"/>
	
		<rect x="178.6" y="104" transform="matrix(0.4904 -0.8715 0.8715 0.4904 30.8016 276.674)" class="st0" width="146.9" height="16"/>
	<path class="st0" d="M232,304h24v-16h-56v-32h56v-16h-88v-24h8v-16h-32v16h8v32c0,4.4,3.6,8,8,8h24v40c0,4.4,3.6,8,8,8h24v40
		c0,4.4,3.6,8,8,8h64v-16h-56V304z"/>
	<rect x="152" y="176" class="st0" width="16" height="16"/>
</g>
</svg>
